<svg width="1145" height="644" viewBox="0 0 1145 644" fill="none" xmlns="http://www.w3.org/2000/svg">
<path d="M78.3242 584H67.0732V536.914C67.0732 533.577 67.6471 530.788 68.7949 528.546C69.9427 526.304 71.5576 524.595 73.6396 523.421C75.7484 522.246 78.2441 521.659 81.127 521.659C82.0612 521.659 82.9421 521.739 83.7695 521.899C84.6237 522.033 85.4512 522.22 86.252 522.46L86.1318 531.389C85.7848 531.282 85.3711 531.202 84.8906 531.148C84.4102 531.095 83.903 531.068 83.3691 531.068C82.3014 531.068 81.3805 531.295 80.6064 531.749C79.859 532.203 79.2852 532.857 78.8848 533.711C78.5111 534.565 78.3242 535.633 78.3242 536.914V584ZM85.0908 540.678V549.126H61.7881V540.678H85.0908ZM90.0557 563.82V560.897C90.0557 557.507 90.4561 554.505 91.2568 551.889C92.0843 549.273 93.2588 547.084 94.7803 545.322C96.3018 543.534 98.1302 542.186 100.266 541.278C102.428 540.344 104.843 539.877 107.513 539.877C110.209 539.877 112.624 540.344 114.76 541.278C116.922 542.186 118.764 543.534 120.285 545.322C121.833 547.084 123.021 549.273 123.849 551.889C124.676 554.505 125.09 557.507 125.09 560.897V563.82C125.09 567.184 124.676 570.173 123.849 572.789C123.021 575.405 121.833 577.607 120.285 579.396C118.764 581.184 116.935 582.532 114.8 583.439C112.664 584.347 110.262 584.801 107.593 584.801C104.924 584.801 102.508 584.347 100.346 583.439C98.2103 582.532 96.3685 581.184 94.8203 579.396C93.2721 577.607 92.0843 575.405 91.2568 572.789C90.4561 570.173 90.0557 567.184 90.0557 563.82ZM101.267 560.897V563.82C101.267 565.822 101.4 567.557 101.667 569.025C101.961 570.493 102.374 571.708 102.908 572.669C103.469 573.63 104.136 574.337 104.91 574.791C105.684 575.245 106.578 575.472 107.593 575.472C108.607 575.472 109.515 575.245 110.315 574.791C111.116 574.337 111.77 573.63 112.277 572.669C112.811 571.708 113.198 570.493 113.438 569.025C113.705 567.557 113.839 565.822 113.839 563.82V560.897C113.839 558.949 113.692 557.241 113.398 555.772C113.105 554.278 112.691 553.063 112.157 552.129C111.623 551.168 110.956 550.447 110.155 549.967C109.381 549.46 108.5 549.206 107.513 549.206C106.525 549.206 105.644 549.46 104.87 549.967C104.123 550.447 103.469 551.168 102.908 552.129C102.374 553.063 101.961 554.278 101.667 555.772C101.4 557.241 101.267 558.949 101.267 560.897ZM92.0576 529.307C92.0576 527.892 92.5781 526.691 93.6191 525.703C94.6602 524.715 95.9814 524.222 97.583 524.222C99.1846 524.222 100.506 524.715 101.547 525.703C102.615 526.691 103.148 527.892 103.148 529.307C103.148 530.748 102.615 531.963 101.547 532.95C100.506 533.911 99.1846 534.392 97.583 534.392C95.9814 534.392 94.6602 533.911 93.6191 532.95C92.5781 531.963 92.0576 530.748 92.0576 529.307ZM111.597 529.347C111.597 527.905 112.104 526.691 113.118 525.703C114.159 524.715 115.494 524.222 117.122 524.222C118.724 524.222 120.045 524.715 121.086 525.703C122.154 526.691 122.688 527.905 122.688 529.347C122.688 530.761 122.154 531.963 121.086 532.95C120.045 533.911 118.724 534.392 117.122 534.392C115.494 534.392 114.159 533.911 113.118 532.95C112.104 531.963 111.597 530.761 111.597 529.347ZM143.388 550.327V584H132.177V540.678H142.747L143.388 550.327ZM153.598 540.357L153.438 551.528C152.93 551.422 152.316 551.341 151.596 551.288C150.902 551.235 150.288 551.208 149.754 551.208C148.499 551.208 147.432 551.408 146.551 551.809C145.67 552.182 144.936 552.756 144.349 553.53C143.788 554.278 143.361 555.212 143.067 556.333C142.774 557.454 142.6 558.722 142.547 560.137L140.425 559.336C140.425 556.507 140.638 553.917 141.065 551.568C141.519 549.193 142.187 547.137 143.067 545.402C143.948 543.641 145.003 542.279 146.23 541.318C147.485 540.357 148.9 539.877 150.475 539.877C151.008 539.877 151.569 539.93 152.156 540.037C152.77 540.117 153.251 540.224 153.598 540.357ZM197.32 574.03V554.011C197.32 552.703 197.16 551.662 196.84 550.888C196.546 550.114 196.092 549.553 195.479 549.206C194.891 548.832 194.171 548.646 193.316 548.646C192.355 548.646 191.555 548.846 190.914 549.246C190.273 549.646 189.793 550.22 189.473 550.968C189.179 551.715 189.032 552.609 189.032 553.65H177.781C177.781 551.782 178.142 550.02 178.862 548.365C179.583 546.684 180.637 545.215 182.025 543.961C183.44 542.68 185.122 541.679 187.07 540.958C189.019 540.237 191.208 539.877 193.637 539.877C196.52 539.877 199.082 540.371 201.324 541.358C203.566 542.319 205.341 543.854 206.649 545.963C207.957 548.072 208.611 550.808 208.611 554.171V573.47C208.611 575.899 208.731 577.874 208.972 579.396C209.239 580.917 209.626 582.225 210.133 583.319V584H198.842C198.335 582.799 197.948 581.304 197.681 579.516C197.44 577.701 197.32 575.872 197.32 574.03ZM198.682 557.534L198.722 564.261H194.598C193.53 564.261 192.596 564.434 191.795 564.781C191.021 565.128 190.367 565.622 189.833 566.263C189.299 566.877 188.899 567.597 188.632 568.425C188.392 569.252 188.271 570.133 188.271 571.067C188.271 572.108 188.418 572.989 188.712 573.71C189.006 574.431 189.446 574.978 190.033 575.352C190.62 575.725 191.314 575.912 192.115 575.912C193.343 575.912 194.411 575.659 195.318 575.151C196.226 574.644 196.893 574.03 197.32 573.31C197.774 572.589 197.921 571.922 197.761 571.308L200.323 575.672C200.003 576.66 199.562 577.687 199.002 578.755C198.468 579.823 197.787 580.81 196.96 581.718C196.132 582.625 195.105 583.373 193.877 583.96C192.676 584.521 191.248 584.801 189.593 584.801C187.271 584.801 185.148 584.267 183.227 583.199C181.305 582.132 179.783 580.637 178.662 578.715C177.568 576.793 177.021 574.511 177.021 571.868C177.021 569.679 177.368 567.704 178.062 565.942C178.782 564.154 179.85 562.646 181.265 561.418C182.679 560.163 184.468 559.202 186.63 558.535C188.792 557.868 191.328 557.534 194.237 557.534H198.682ZM228.671 522.5V584H217.42V522.5H228.671ZM249.331 522.5V584H238.08V522.5H249.331ZM277.318 574.03V554.011C277.318 552.703 277.158 551.662 276.838 550.888C276.544 550.114 276.09 549.553 275.477 549.206C274.889 548.832 274.169 548.646 273.314 548.646C272.354 548.646 271.553 548.846 270.912 549.246C270.271 549.646 269.791 550.22 269.471 550.968C269.177 551.715 269.03 552.609 269.03 553.65H257.779C257.779 551.782 258.14 550.02 258.86 548.365C259.581 546.684 260.635 545.215 262.023 543.961C263.438 542.68 265.12 541.679 267.068 540.958C269.017 540.237 271.206 539.877 273.635 539.877C276.518 539.877 279.08 540.371 281.322 541.358C283.564 542.319 285.34 543.854 286.647 545.963C287.955 548.072 288.609 550.808 288.609 554.171V573.47C288.609 575.899 288.729 577.874 288.97 579.396C289.237 580.917 289.624 582.225 290.131 583.319V584H278.84C278.333 582.799 277.946 581.304 277.679 579.516C277.438 577.701 277.318 575.872 277.318 574.03ZM278.68 557.534L278.72 564.261H274.596C273.528 564.261 272.594 564.434 271.793 564.781C271.019 565.128 270.365 565.622 269.831 566.263C269.297 566.877 268.897 567.597 268.63 568.425C268.39 569.252 268.27 570.133 268.27 571.067C268.27 572.108 268.416 572.989 268.71 573.71C269.004 574.431 269.444 574.978 270.031 575.352C270.618 575.725 271.312 575.912 272.113 575.912C273.341 575.912 274.409 575.659 275.316 575.151C276.224 574.644 276.891 574.03 277.318 573.31C277.772 572.589 277.919 571.922 277.759 571.308L280.321 575.672C280.001 576.66 279.561 577.687 279 578.755C278.466 579.823 277.785 580.81 276.958 581.718C276.131 582.625 275.103 583.373 273.875 583.96C272.674 584.521 271.246 584.801 269.591 584.801C267.269 584.801 265.146 584.267 263.225 583.199C261.303 582.132 259.781 580.637 258.66 578.715C257.566 576.793 257.019 574.511 257.019 571.868C257.019 569.679 257.366 567.704 258.06 565.942C258.78 564.154 259.848 562.646 261.263 561.418C262.677 560.163 264.466 559.202 266.628 558.535C268.79 557.868 271.326 557.534 274.235 557.534H278.68Z" fill="black"/>
<path d="M79.9395 116H69.6494L69.7295 106.311H79.9395C82.7689 106.311 84.971 105.803 86.5459 104.789C88.1208 103.775 89.2285 102.173 89.8691 99.9844C90.5365 97.7956 90.8701 94.9261 90.8701 91.376V82.2871C90.8701 79.5911 90.6966 77.3089 90.3496 75.4404C90.0026 73.5452 89.4154 72.0238 88.5879 70.876C87.7604 69.7015 86.6527 68.834 85.2646 68.2734C83.8766 67.7129 82.1549 67.4326 80.0996 67.4326H69.4492V57.7031H80.0996C83.4629 57.7031 86.5192 58.2503 89.2686 59.3447C92.0179 60.4391 94.3802 62.0407 96.3555 64.1494C98.3307 66.2314 99.8522 68.8073 100.92 71.877C101.988 74.9466 102.521 78.4434 102.521 82.3672V91.376C102.521 95.3265 101.988 98.8232 100.92 101.866C99.8522 104.909 98.3307 107.485 96.3555 109.594C94.4069 111.676 92.0446 113.264 89.2686 114.358C86.4925 115.453 83.3828 116 79.9395 116ZM76.4561 57.7031V116H64.7246V57.7031H76.4561ZM122.301 72.6777V116H111.05V72.6777H122.301ZM110.529 61.4668C110.529 59.7318 111.076 58.3037 112.171 57.1826C113.292 56.0348 114.787 55.4609 116.655 55.4609C118.55 55.4609 120.045 56.0348 121.14 57.1826C122.234 58.3037 122.781 59.7318 122.781 61.4668C122.781 63.1751 122.221 64.6032 121.1 65.751C120.005 66.8721 118.537 67.4326 116.695 67.4326C114.8 67.4326 113.292 66.8721 112.171 65.751C111.076 64.6032 110.529 63.1751 110.529 61.4668ZM153.972 72.6777H164.142V116C164.142 119.951 163.381 123.18 161.859 125.689C160.365 128.225 158.269 130.08 155.573 131.255C152.904 132.456 149.781 133.057 146.204 133.057C144.843 133.057 143.308 132.87 141.6 132.496C139.918 132.122 138.29 131.549 136.715 130.774C135.14 130.027 133.845 129.119 132.831 128.052L136.635 120.284C137.676 121.325 139.037 122.206 140.719 122.927C142.4 123.674 144.055 124.048 145.684 124.048C147.258 124.048 148.566 123.794 149.607 123.287C150.675 122.807 151.476 121.979 152.01 120.805C152.57 119.63 152.851 118.055 152.851 116.08V82.7275L153.972 72.6777ZM129.788 95.8604V92.9775C129.788 89.4541 130.122 86.3711 130.789 83.7285C131.456 81.0859 132.417 78.8838 133.672 77.1221C134.926 75.3604 136.461 74.0524 138.276 73.1982C140.118 72.3174 142.174 71.877 144.442 71.877C146.818 71.877 148.807 72.3975 150.408 73.4385C152.01 74.4528 153.304 75.8809 154.292 77.7227C155.306 79.5645 156.08 81.7399 156.614 84.249C157.175 86.7581 157.602 89.5075 157.896 92.4971V96.6611C157.602 99.4906 157.121 102.133 156.454 104.589C155.813 107.045 154.959 109.18 153.892 110.995C152.824 112.81 151.516 114.238 149.968 115.279C148.42 116.294 146.551 116.801 144.362 116.801C142.12 116.801 140.091 116.347 138.276 115.439C136.488 114.532 134.953 113.197 133.672 111.436C132.417 109.647 131.456 107.458 130.789 104.869C130.122 102.253 129.788 99.2503 129.788 95.8604ZM141.039 92.9775V95.8604C141.039 97.889 141.159 99.6374 141.399 101.105C141.666 102.547 142.067 103.735 142.601 104.669C143.134 105.576 143.815 106.257 144.643 106.711C145.497 107.138 146.498 107.352 147.646 107.352C149.274 107.352 150.568 106.978 151.529 106.23C152.517 105.456 153.238 104.402 153.691 103.067C154.172 101.706 154.439 100.145 154.492 98.3828V90.8154C154.465 89.3473 154.292 88.026 153.972 86.8516C153.678 85.6771 153.264 84.6761 152.73 83.8486C152.197 83.0212 151.503 82.3805 150.648 81.9268C149.821 81.473 148.847 81.2461 147.726 81.2461C146.578 81.2461 145.59 81.473 144.763 81.9268C143.935 82.3805 143.241 83.0879 142.681 84.0488C142.147 84.9831 141.733 86.1976 141.439 87.6924C141.173 89.1605 141.039 90.9222 141.039 92.9775ZM184.281 72.6777V116H173.03V72.6777H184.281ZM172.51 61.4668C172.51 59.7318 173.057 58.3037 174.151 57.1826C175.272 56.0348 176.767 55.4609 178.636 55.4609C180.531 55.4609 182.026 56.0348 183.12 57.1826C184.215 58.3037 184.762 59.7318 184.762 61.4668C184.762 63.1751 184.201 64.6032 183.08 65.751C181.986 66.8721 180.518 67.4326 178.676 67.4326C176.781 67.4326 175.272 66.8721 174.151 65.751C173.057 64.6032 172.51 63.1751 172.51 61.4668ZM212.068 72.6777V81.126H189.967V72.6777H212.068ZM195.052 61.9873H206.223V102.787C206.223 103.988 206.343 104.909 206.583 105.55C206.823 106.19 207.184 106.644 207.664 106.911C208.171 107.151 208.839 107.271 209.666 107.271C210.227 107.271 210.747 107.245 211.228 107.191C211.708 107.111 212.068 107.031 212.309 106.951V115.72C211.428 116.067 210.493 116.334 209.506 116.521C208.545 116.707 207.397 116.801 206.062 116.801C203.82 116.801 201.872 116.374 200.217 115.52C198.589 114.665 197.321 113.304 196.413 111.436C195.506 109.54 195.052 107.058 195.052 103.988V61.9873ZM237.413 106.03V86.0107C237.413 84.7028 237.253 83.6618 236.933 82.8877C236.639 82.1136 236.185 81.5531 235.571 81.2061C234.984 80.8324 234.263 80.6455 233.409 80.6455C232.448 80.6455 231.647 80.8457 231.007 81.2461C230.366 81.6465 229.886 82.2204 229.565 82.9678C229.272 83.7152 229.125 84.6094 229.125 85.6504H217.874C217.874 83.7819 218.234 82.0202 218.955 80.3652C219.676 78.6836 220.73 77.2155 222.118 75.9609C223.533 74.6797 225.215 73.6787 227.163 72.958C229.112 72.2373 231.3 71.877 233.729 71.877C236.612 71.877 239.175 72.3708 241.417 73.3584C243.659 74.3193 245.434 75.8542 246.742 77.9629C248.05 80.0716 248.704 82.8076 248.704 86.1709V105.47C248.704 107.899 248.824 109.874 249.064 111.396C249.331 112.917 249.718 114.225 250.226 115.319V116H238.935C238.427 114.799 238.04 113.304 237.773 111.516C237.533 109.701 237.413 107.872 237.413 106.03ZM238.774 89.5342L238.814 96.2607H234.69C233.623 96.2607 232.688 96.4342 231.888 96.7812C231.114 97.1283 230.46 97.6221 229.926 98.2627C229.392 98.8766 228.992 99.5973 228.725 100.425C228.484 101.252 228.364 102.133 228.364 103.067C228.364 104.108 228.511 104.989 228.805 105.71C229.098 106.431 229.539 106.978 230.126 107.352C230.713 107.725 231.407 107.912 232.208 107.912C233.436 107.912 234.504 107.659 235.411 107.151C236.319 106.644 236.986 106.03 237.413 105.31C237.867 104.589 238.014 103.922 237.854 103.308L240.416 107.672C240.096 108.66 239.655 109.687 239.095 110.755C238.561 111.823 237.88 112.81 237.053 113.718C236.225 114.625 235.198 115.373 233.97 115.96C232.769 116.521 231.34 116.801 229.686 116.801C227.363 116.801 225.241 116.267 223.319 115.199C221.397 114.132 219.876 112.637 218.755 110.715C217.66 108.793 217.113 106.511 217.113 103.868C217.113 101.679 217.46 99.7041 218.154 97.9424C218.875 96.154 219.943 94.6458 221.357 93.418C222.772 92.1634 224.561 91.2025 226.723 90.5352C228.885 89.8678 231.421 89.5342 234.33 89.5342H238.774ZM268.764 54.5V116H257.513V54.5H268.764ZM296.751 106.03V86.0107C296.751 84.7028 296.591 83.6618 296.271 82.8877C295.977 82.1136 295.523 81.5531 294.909 81.2061C294.322 80.8324 293.601 80.6455 292.747 80.6455C291.786 80.6455 290.985 80.8457 290.345 81.2461C289.704 81.6465 289.224 82.2204 288.903 82.9678C288.61 83.7152 288.463 84.6094 288.463 85.6504H277.212C277.212 83.7819 277.572 82.0202 278.293 80.3652C279.014 78.6836 280.068 77.2155 281.456 75.9609C282.871 74.6797 284.552 73.6787 286.501 72.958C288.45 72.2373 290.638 71.877 293.067 71.877C295.95 71.877 298.513 72.3708 300.755 73.3584C302.997 74.3193 304.772 75.8542 306.08 77.9629C307.388 80.0716 308.042 82.8076 308.042 86.1709V105.47C308.042 107.899 308.162 109.874 308.402 111.396C308.669 112.917 309.056 114.225 309.563 115.319V116H298.272C297.765 114.799 297.378 113.304 297.111 111.516C296.871 109.701 296.751 107.872 296.751 106.03ZM298.112 89.5342L298.152 96.2607H294.028C292.961 96.2607 292.026 96.4342 291.226 96.7812C290.451 97.1283 289.798 97.6221 289.264 98.2627C288.73 98.8766 288.329 99.5973 288.062 100.425C287.822 101.252 287.702 102.133 287.702 103.067C287.702 104.108 287.849 104.989 288.143 105.71C288.436 106.431 288.877 106.978 289.464 107.352C290.051 107.725 290.745 107.912 291.546 107.912C292.774 107.912 293.841 107.659 294.749 107.151C295.657 106.644 296.324 106.03 296.751 105.31C297.205 104.589 297.352 103.922 297.191 103.308L299.754 107.672C299.434 108.66 298.993 109.687 298.433 110.755C297.899 111.823 297.218 112.81 296.391 113.718C295.563 114.625 294.535 115.373 293.308 115.96C292.106 116.521 290.678 116.801 289.023 116.801C286.701 116.801 284.579 116.267 282.657 115.199C280.735 114.132 279.214 112.637 278.093 110.715C276.998 108.793 276.451 106.511 276.451 103.868C276.451 101.679 276.798 99.7041 277.492 97.9424C278.213 96.154 279.281 94.6458 280.695 93.418C282.11 92.1634 283.898 91.2025 286.061 90.5352C288.223 89.8678 290.758 89.5342 293.668 89.5342H298.112Z" fill="black"/>
<path d="M914.062 248.678V257.126H891.961V248.678H914.062ZM897.046 237.987H908.217V278.787C908.217 279.988 908.337 280.909 908.577 281.55C908.817 282.19 909.178 282.644 909.658 282.911C910.165 283.151 910.833 283.271 911.66 283.271C912.221 283.271 912.741 283.245 913.222 283.191C913.702 283.111 914.062 283.031 914.303 282.951V291.72C913.422 292.067 912.488 292.334 911.5 292.521C910.539 292.707 909.391 292.801 908.057 292.801C905.814 292.801 903.866 292.374 902.211 291.52C900.583 290.665 899.315 289.304 898.407 287.436C897.5 285.54 897.046 283.058 897.046 279.988V237.987ZM920.829 248.678H932.12V294.402C932.12 297.659 931.6 300.408 930.559 302.65C929.544 304.893 928.076 306.588 926.154 307.735C924.232 308.91 921.91 309.497 919.188 309.497C918.307 309.497 917.439 309.444 916.585 309.337C915.731 309.23 914.863 309.057 913.982 308.816L914.022 299.688C914.556 299.794 915.077 299.874 915.584 299.928C916.064 299.981 916.545 300.008 917.025 300.008C917.88 300.008 918.587 299.808 919.147 299.407C919.708 299.034 920.122 298.433 920.389 297.605C920.682 296.778 920.829 295.71 920.829 294.402V248.678ZM920.068 237.467C920.068 235.732 920.629 234.304 921.75 233.183C922.871 232.035 924.353 231.461 926.194 231.461C928.063 231.461 929.558 232.035 930.679 233.183C931.8 234.304 932.36 235.732 932.36 237.467C932.36 239.175 931.8 240.603 930.679 241.751C929.558 242.872 928.063 243.433 926.194 243.433C924.353 243.433 922.871 242.872 921.75 241.751C920.629 240.603 920.068 239.175 920.068 237.467ZM959.507 282.03V262.011C959.507 260.703 959.347 259.662 959.026 258.888C958.733 258.114 958.279 257.553 957.665 257.206C957.078 256.832 956.357 256.646 955.503 256.646C954.542 256.646 953.741 256.846 953.101 257.246C952.46 257.646 951.979 258.22 951.659 258.968C951.366 259.715 951.219 260.609 951.219 261.65H939.968C939.968 259.782 940.328 258.02 941.049 256.365C941.77 254.684 942.824 253.215 944.212 251.961C945.627 250.68 947.308 249.679 949.257 248.958C951.205 248.237 953.394 247.877 955.823 247.877C958.706 247.877 961.269 248.371 963.511 249.358C965.753 250.319 967.528 251.854 968.836 253.963C970.144 256.072 970.798 258.808 970.798 262.171V281.47C970.798 283.899 970.918 285.874 971.158 287.396C971.425 288.917 971.812 290.225 972.319 291.319V292H961.028C960.521 290.799 960.134 289.304 959.867 287.516C959.627 285.701 959.507 283.872 959.507 282.03ZM960.868 265.534L960.908 272.261H956.784C955.716 272.261 954.782 272.434 953.981 272.781C953.207 273.128 952.553 273.622 952.02 274.263C951.486 274.877 951.085 275.597 950.818 276.425C950.578 277.252 950.458 278.133 950.458 279.067C950.458 280.108 950.605 280.989 950.898 281.71C951.192 282.431 951.632 282.978 952.22 283.352C952.807 283.725 953.501 283.912 954.302 283.912C955.53 283.912 956.597 283.659 957.505 283.151C958.412 282.644 959.08 282.03 959.507 281.31C959.961 280.589 960.107 279.922 959.947 279.308L962.51 283.672C962.189 284.66 961.749 285.687 961.188 286.755C960.655 287.823 959.974 288.81 959.146 289.718C958.319 290.625 957.291 291.373 956.063 291.96C954.862 292.521 953.434 292.801 951.779 292.801C949.457 292.801 947.335 292.267 945.413 291.199C943.491 290.132 941.97 288.637 940.849 286.715C939.754 284.793 939.207 282.511 939.207 279.868C939.207 277.679 939.554 275.704 940.248 273.942C940.969 272.154 942.036 270.646 943.451 269.418C944.866 268.163 946.654 267.202 948.816 266.535C950.979 265.868 953.514 265.534 956.424 265.534H960.868ZM940.088 237.307C940.088 235.892 940.608 234.691 941.649 233.703C942.69 232.715 944.012 232.222 945.613 232.222C947.215 232.222 948.536 232.715 949.577 233.703C950.645 234.691 951.179 235.892 951.179 237.307C951.179 238.748 950.645 239.963 949.577 240.95C948.536 241.911 947.215 242.392 945.613 242.392C944.012 242.392 942.69 241.911 941.649 240.95C940.608 239.963 940.088 238.748 940.088 237.307ZM959.627 237.347C959.627 235.905 960.134 234.691 961.148 233.703C962.189 232.715 963.524 232.222 965.152 232.222C966.754 232.222 968.075 232.715 969.116 233.703C970.184 234.691 970.718 235.905 970.718 237.347C970.718 238.761 970.184 239.963 969.116 240.95C968.075 241.911 966.754 242.392 965.152 242.392C963.524 242.392 962.189 241.911 961.148 240.95C960.134 239.963 959.627 238.761 959.627 237.347ZM990.097 257.927V292H978.846V248.678H989.376L990.097 257.927ZM988.415 268.857L985.412 268.938C985.359 265.681 985.666 262.758 986.333 260.169C987.027 257.58 988.001 255.378 989.256 253.562C990.537 251.721 992.059 250.319 993.82 249.358C995.609 248.371 997.597 247.877 999.786 247.877C1001.47 247.877 1003 248.171 1004.39 248.758C1005.81 249.345 1007.02 250.279 1008.03 251.561C1009.05 252.842 1009.84 254.55 1010.4 256.686C1010.96 258.794 1011.24 261.383 1011.24 264.453V292H999.986V264.373C999.986 262.505 999.799 261.063 999.426 260.049C999.052 259.008 998.492 258.287 997.744 257.887C996.997 257.46 996.062 257.246 994.941 257.246C993.874 257.246 992.926 257.553 992.099 258.167C991.271 258.754 990.577 259.568 990.017 260.609C989.483 261.65 989.069 262.878 988.775 264.293C988.508 265.708 988.388 267.229 988.415 268.857ZM1038.66 280.309C1038.66 279.561 1038.41 278.894 1037.9 278.307C1037.4 277.719 1036.6 277.119 1035.5 276.505C1034.41 275.864 1032.95 275.157 1031.14 274.383C1029.16 273.582 1027.41 272.755 1025.89 271.9C1024.37 271.046 1023.08 270.099 1022.01 269.058C1020.97 268.017 1020.18 266.829 1019.65 265.494C1019.11 264.16 1018.84 262.638 1018.84 260.93C1018.84 259.088 1019.18 257.393 1019.85 255.845C1020.54 254.27 1021.53 252.895 1022.81 251.721C1024.09 250.52 1025.65 249.585 1027.49 248.918C1029.36 248.224 1031.46 247.877 1033.78 247.877C1037.04 247.877 1039.83 248.451 1042.15 249.599C1044.5 250.72 1046.3 252.295 1047.55 254.323C1048.81 256.352 1049.43 258.714 1049.43 261.41H1038.22C1038.22 260.449 1038.08 259.595 1037.78 258.848C1037.49 258.074 1037.01 257.473 1036.34 257.046C1035.7 256.619 1034.83 256.405 1033.74 256.405C1032.94 256.405 1032.22 256.579 1031.58 256.926C1030.96 257.273 1030.47 257.74 1030.1 258.327C1029.75 258.888 1029.58 259.555 1029.58 260.329C1029.58 260.916 1029.7 261.437 1029.94 261.891C1030.2 262.344 1030.62 262.785 1031.18 263.212C1031.74 263.639 1032.48 264.093 1033.42 264.573C1034.38 265.027 1035.55 265.534 1036.94 266.095C1039.83 267.162 1042.19 268.31 1044.03 269.538C1045.9 270.766 1047.29 272.207 1048.19 273.862C1049.1 275.491 1049.55 277.506 1049.55 279.908C1049.55 281.83 1049.18 283.578 1048.43 285.153C1047.71 286.728 1046.66 288.09 1045.27 289.237C1043.88 290.385 1042.21 291.266 1040.27 291.88C1038.34 292.494 1036.19 292.801 1033.82 292.801C1030.32 292.801 1027.37 292.107 1024.97 290.719C1022.57 289.331 1020.75 287.556 1019.53 285.394C1018.3 283.205 1017.68 280.936 1017.68 278.587H1028.33C1028.39 280.028 1028.65 281.163 1029.13 281.99C1029.64 282.791 1030.32 283.352 1031.18 283.672C1032.03 283.992 1032.98 284.152 1034.02 284.152C1035.06 284.152 1035.91 284.019 1036.58 283.752C1037.28 283.458 1037.8 283.018 1038.14 282.431C1038.49 281.817 1038.66 281.109 1038.66 280.309ZM1075.58 248.678V257.126H1053.48V248.678H1075.58ZM1058.56 237.987H1069.73V278.787C1069.73 279.988 1069.85 280.909 1070.09 281.55C1070.33 282.19 1070.7 282.644 1071.18 282.911C1071.68 283.151 1072.35 283.271 1073.18 283.271C1073.74 283.271 1074.26 283.245 1074.74 283.191C1075.22 283.111 1075.58 283.031 1075.82 282.951V291.72C1074.94 292.067 1074.01 292.334 1073.02 292.521C1072.06 292.707 1070.91 292.801 1069.57 292.801C1067.33 292.801 1065.38 292.374 1063.73 291.52C1062.1 290.665 1060.83 289.304 1059.92 287.436C1059.02 285.54 1058.56 283.058 1058.56 279.988V237.987ZM1099.28 292.801C1096.32 292.801 1093.69 292.347 1091.4 291.439C1089.13 290.532 1087.2 289.224 1085.63 287.516C1084.06 285.781 1082.85 283.685 1082.03 281.229C1081.2 278.774 1080.79 275.971 1080.79 272.821V269.258C1080.79 265.734 1081.19 262.651 1081.99 260.009C1082.79 257.34 1083.92 255.097 1085.39 253.282C1086.86 251.467 1088.66 250.119 1090.79 249.238C1092.96 248.331 1095.4 247.877 1098.12 247.877C1100.84 247.877 1103.23 248.331 1105.29 249.238C1107.37 250.119 1109.09 251.454 1110.45 253.242C1111.82 255.004 1112.84 257.193 1113.54 259.809C1114.23 262.424 1114.58 265.467 1114.58 268.938V274.062H1085.55V266.175H1103.57V265.174C1103.57 263.412 1103.38 261.944 1103.01 260.77C1102.63 259.568 1102.05 258.674 1101.25 258.087C1100.44 257.5 1099.38 257.206 1098.04 257.206C1096.92 257.206 1095.97 257.433 1095.2 257.887C1094.43 258.34 1093.81 259.048 1093.36 260.009C1092.9 260.97 1092.57 262.224 1092.36 263.772C1092.14 265.294 1092.04 267.122 1092.04 269.258V272.821C1092.04 274.823 1092.21 276.505 1092.56 277.866C1092.9 279.201 1093.41 280.295 1094.08 281.149C1094.77 281.977 1095.61 282.577 1096.6 282.951C1097.59 283.298 1098.74 283.472 1100.04 283.472C1102.02 283.472 1103.79 283.125 1105.37 282.431C1106.97 281.71 1108.33 280.736 1109.45 279.508L1113.94 286.314C1113.16 287.329 1112.1 288.343 1110.73 289.357C1109.37 290.372 1107.74 291.199 1105.85 291.84C1103.95 292.48 1101.77 292.801 1099.28 292.801ZM1132.28 258.327V292H1121.06V248.678H1131.63L1132.28 258.327ZM1142.49 248.357L1142.33 259.528C1141.82 259.422 1141.2 259.341 1140.48 259.288C1139.79 259.235 1139.18 259.208 1138.64 259.208C1137.39 259.208 1136.32 259.408 1135.44 259.809C1134.56 260.182 1133.82 260.756 1133.24 261.53C1132.68 262.278 1132.25 263.212 1131.96 264.333C1131.66 265.454 1131.49 266.722 1131.43 268.137L1129.31 267.336C1129.31 264.507 1129.53 261.917 1129.95 259.568C1130.41 257.193 1131.07 255.137 1131.96 253.402C1132.84 251.641 1133.89 250.279 1135.12 249.318C1136.37 248.357 1137.79 247.877 1139.36 247.877C1139.9 247.877 1140.46 247.93 1141.04 248.037C1141.66 248.117 1142.14 248.224 1142.49 248.357Z" fill="black"/>
<line x1="370" y1="263" x2="370" y2="643" stroke="#91E3EF" stroke-width="4"/>
<line x1="380" y1="263" x2="380" y2="643" stroke="#91E3EF" stroke-width="4"/>
<line x1="390" y1="263" x2="390" y2="643" stroke="#91E3EF" stroke-width="4"/>
<line x1="400" y1="263" x2="400" y2="643" stroke="#91E3EF" stroke-width="4"/>
<line x1="410" y1="263" x2="410" y2="643" stroke="#91E3EF" stroke-width="4"/>
<line x1="420" y1="263" x2="420" y2="643" stroke="#91E3EF" stroke-width="4"/>
<line x1="430" y1="263" x2="430" y2="643" stroke="#91E3EF" stroke-width="4"/>
<line x1="440" y1="263" x2="440" y2="643" stroke="#91E3EF" stroke-width="4"/>
<line x1="640" y1="263" x2="640" y2="642" stroke="#FFBFDE" stroke-width="4"/>
<line x1="650" y1="263" x2="650" y2="642" stroke="#FFBFDE" stroke-width="4"/>
<line x1="660" y1="263" x2="660" y2="642" stroke="#FFBFDE" stroke-width="4"/>
<line x1="670" y1="263" x2="670" y2="642" stroke="#FFBFDE" stroke-width="4"/>
<line x1="680" y1="263" x2="680" y2="642" stroke="#FFBFDE" stroke-width="4"/>
<line x1="690" y1="263" x2="690" y2="642" stroke="#FFBFDE" stroke-width="4"/>
<line x1="700" y1="263" x2="700" y2="642" stroke="#FFBFDE" stroke-width="4"/>
<line x1="710" y1="263" x2="710" y2="642" stroke="#FFBFDE" stroke-width="4"/>
<line x1="771" y1="1" x2="771" y2="381" stroke="#BDD2FF" stroke-width="4"/>
<line x1="781" y1="1" x2="781" y2="381" stroke="#BDD2FF" stroke-width="4"/>
<line x1="791" y1="1" x2="791" y2="381" stroke="#BDD2FF" stroke-width="4"/>
<line x1="801" y1="1" x2="801" y2="381" stroke="#BDD2FF" stroke-width="4"/>
<line x1="811" y1="1" x2="811" y2="381" stroke="#BDD2FF" stroke-width="4"/>
<line x1="821" y1="1" x2="821" y2="381" stroke="#BDD2FF" stroke-width="4"/>
<line x1="831" y1="1" x2="831" y2="381" stroke="#BDD2FF" stroke-width="4"/>
<line x1="841" y1="1" x2="841" y2="381" stroke="#BDD2FF" stroke-width="4"/>
<line x1="505" y1="1" x2="505" y2="381" stroke="#FFEE66" stroke-width="4"/>
<line x1="515" y1="1" x2="515" y2="381" stroke="#FFEE66" stroke-width="4"/>
<line x1="525" y1="1" x2="525" y2="381" stroke="#FFEE66" stroke-width="4"/>
<line x1="535" y1="1" x2="535" y2="381" stroke="#FFEE66" stroke-width="4"/>
<line x1="545" y1="1" x2="545" y2="381" stroke="#FFEE66" stroke-width="4"/>
<line x1="555" y1="1" x2="555" y2="381" stroke="#FFEE66" stroke-width="4"/>
<line x1="565" y1="1" x2="565" y2="381" stroke="#FFEE66" stroke-width="4"/>
<line x1="575" y1="1" x2="575" y2="381" stroke="#FFEE66" stroke-width="4"/>
<path d="M380.349 113.709C378.661 111.032 376.297 104.07 380.349 97.6443" stroke="black" stroke-width="3"/>
<path d="M374.533 119.287C371.493 115.122 367.238 103.936 374.533 92.5126" stroke="black" stroke-width="3"/>
<path d="M368.713 125.758C363.647 119.323 356.555 102.282 368.713 85.5958" stroke="black" stroke-width="3"/>
<path d="M379.088 62.4964C383.36 54.7886 395.566 39.7381 412.654 43.6326C416.316 44.4671 443.779 48.5006 445 78.3178C445 87.6483 441.826 110.082 429.132 125.173C423.029 134.098 406.185 146.593 387.632 125.173" stroke="black" stroke-width="4"/>
<path d="M404.11 107.526C411.434 102.252 420.222 89.3926 396.787 80.1432C394.752 76.0865 394.712 67.2428 410.823 64.3219" stroke="black" stroke-width="3"/>
<path d="M541.742 511.695L510.308 546.971C506.177 552.338 505.983 557.562 508.978 564.343C511.419 570.248 519.441 581.015 531.998 576.833L581.866 557.251" stroke="black" stroke-width="4"/>
<path d="M502.271 562.509L514.738 556.413L528.59 561.638L553.524 563.379L570.147 558.155L573.841 564.686L520.279 587.326L502.271 562.509Z" fill="white"/>
<path d="M549.832 546.399L506.432 567.571C500.43 571.027 498.121 575.78 498.121 583.125C497.967 589.462 500.984 602.309 514.281 603H568.3" stroke="black" stroke-width="4"/>
<path d="M583.075 569.039H542.443" stroke="black" stroke-width="4"/>
<path d="M588.616 581.23H547.983" stroke="black" stroke-width="4"/>
<path d="M583.075 592.551H542.443" stroke="black" stroke-width="4"/>
<path d="M581.661 520.544L544.15 535.273" stroke="black" stroke-width="4"/>
<path d="M591.746 529.79L554.236 544.519" stroke="black" stroke-width="4"/>
<path d="M591.246 542.249L553.736 556.978" stroke="black" stroke-width="4"/>
<path d="M623 75.8519C629.214 68.2689 643.96 55.9141 652.35 53.5019C655.127 52.7037 657.03 52.5441 669.405 56.6948C672.181 57.626 674.165 57.8921 683.684 53.5019C690.03 51.5064 699.866 54.7791 717 75.8519M623 75.8519H717M623 75.8519C627.231 85.5635 643.624 99 670.595 99C683.684 99 703.515 99 717 75.8519" stroke="black" stroke-width="4"/>
<line x1="370" y1="263" x2="370" y2="643" stroke="#91E3EF" stroke-width="4"/>
<line x1="380" y1="263" x2="380" y2="643" stroke="#91E3EF" stroke-width="4"/>
<line x1="390" y1="263" x2="390" y2="643" stroke="#91E3EF" stroke-width="4"/>
<line x1="400" y1="263" x2="400" y2="643" stroke="#91E3EF" stroke-width="4"/>
<line x1="410" y1="263" x2="410" y2="643" stroke="#91E3EF" stroke-width="4"/>
<line x1="420" y1="263" x2="420" y2="643" stroke="#91E3EF" stroke-width="4"/>
<line x1="430" y1="263" x2="430" y2="643" stroke="#91E3EF" stroke-width="4"/>
<line x1="440" y1="263" x2="440" y2="643" stroke="#91E3EF" stroke-width="4"/>
<line x1="640" y1="263" x2="640" y2="642" stroke="#FFBFDE" stroke-width="4"/>
<line x1="650" y1="263" x2="650" y2="642" stroke="#FFBFDE" stroke-width="4"/>
<line x1="660" y1="263" x2="660" y2="642" stroke="#FFBFDE" stroke-width="4"/>
<line x1="670" y1="263" x2="670" y2="642" stroke="#FFBFDE" stroke-width="4"/>
<line x1="680" y1="263" x2="680" y2="642" stroke="#FFBFDE" stroke-width="4"/>
<line x1="690" y1="263" x2="690" y2="642" stroke="#FFBFDE" stroke-width="4"/>
<line x1="700" y1="263" x2="700" y2="642" stroke="#FFBFDE" stroke-width="4"/>
<line x1="710" y1="263" x2="710" y2="642" stroke="#FFBFDE" stroke-width="4"/>
<line x1="771" y1="1" x2="771" y2="381" stroke="#BDD2FF" stroke-width="4"/>
<line x1="781" y1="1" x2="781" y2="381" stroke="#BDD2FF" stroke-width="4"/>
<line x1="791" y1="1" x2="791" y2="381" stroke="#BDD2FF" stroke-width="4"/>
<line x1="801" y1="1" x2="801" y2="381" stroke="#BDD2FF" stroke-width="4"/>
<line x1="811" y1="1" x2="811" y2="381" stroke="#BDD2FF" stroke-width="4"/>
<line x1="821" y1="1" x2="821" y2="381" stroke="#BDD2FF" stroke-width="4"/>
<line x1="831" y1="1" x2="831" y2="381" stroke="#BDD2FF" stroke-width="4"/>
<line x1="841" y1="1" x2="841" y2="381" stroke="#BDD2FF" stroke-width="4"/>
<line x1="505" y1="1" x2="505" y2="381" stroke="#FFEE66" stroke-width="4"/>
<line x1="515" y1="1" x2="515" y2="381" stroke="#FFEE66" stroke-width="4"/>
<line x1="525" y1="1" x2="525" y2="381" stroke="#FFEE66" stroke-width="4"/>
<line x1="535" y1="1" x2="535" y2="381" stroke="#FFEE66" stroke-width="4"/>
<line x1="545" y1="1" x2="545" y2="381" stroke="#FFEE66" stroke-width="4"/>
<line x1="555" y1="1" x2="555" y2="381" stroke="#FFEE66" stroke-width="4"/>
<line x1="565" y1="1" x2="565" y2="381" stroke="#FFEE66" stroke-width="4"/>
<line x1="575" y1="1" x2="575" y2="381" stroke="#FFEE66" stroke-width="4"/>
<path d="M380.349 113.709C378.661 111.032 376.297 104.07 380.349 97.6443" stroke="black" stroke-width="3"/>
<path d="M374.533 119.287C371.493 115.122 367.238 103.936 374.533 92.5126" stroke="black" stroke-width="3"/>
<path d="M368.713 125.758C363.647 119.323 356.555 102.282 368.713 85.5958" stroke="black" stroke-width="3"/>
<path d="M379.088 62.4964C383.36 54.7886 395.566 39.7381 412.654 43.6326C416.316 44.4671 443.779 48.5006 445 78.3178C445 87.6483 441.826 110.082 429.132 125.173C423.029 134.098 406.185 146.593 387.632 125.173" stroke="black" stroke-width="4"/>
<path d="M404.11 107.526C411.434 102.252 420.222 89.3926 396.787 80.1432C394.752 76.0865 394.712 67.2428 410.823 64.3219" stroke="black" stroke-width="3"/>
<path d="M541.742 511.695L510.308 546.971C506.177 552.338 505.983 557.562 508.978 564.343C511.419 570.248 519.441 581.015 531.998 576.833L581.866 557.251" stroke="black" stroke-width="4"/>
<path d="M502.271 562.509L514.738 556.413L528.59 561.638L553.524 563.379L570.147 558.155L573.841 564.686L520.279 587.326L502.271 562.509Z" fill="white"/>
<path d="M549.832 546.399L506.432 567.571C500.43 571.027 498.121 575.78 498.121 583.125C497.967 589.462 500.984 602.309 514.281 603H568.3" stroke="black" stroke-width="4"/>
<path d="M583.075 569.039H542.443" stroke="black" stroke-width="4"/>
<path d="M588.616 581.23H547.983" stroke="black" stroke-width="4"/>
<path d="M583.075 592.551H542.443" stroke="black" stroke-width="4"/>
<path d="M581.661 520.544L544.15 535.273" stroke="black" stroke-width="4"/>
<path d="M591.746 529.79L554.236 544.519" stroke="black" stroke-width="4"/>
<path d="M591.246 542.249L553.736 556.978" stroke="black" stroke-width="4"/>
<path d="M623 75.8519C629.214 68.2689 643.96 55.9141 652.35 53.5019C655.127 52.7037 657.03 52.5441 669.405 56.6948C672.181 57.626 674.165 57.8921 683.684 53.5019C690.03 51.5064 699.866 54.7791 717 75.8519M623 75.8519H717M623 75.8519C627.231 85.5635 643.624 99 670.595 99C683.684 99 703.515 99 717 75.8519" stroke="black" stroke-width="4"/>
<path d="M791.7 543.345C797.04 540 810.924 535.318 823.74 543.345" stroke="black" stroke-width="5"/>
<path d="M780.575 531.824C788.882 525.803 811.191 517.374 833.975 531.824" stroke="black" stroke-width="5"/>
<path d="M767.67 520.297C780.504 510.263 814.491 496.215 847.77 520.297" stroke="black" stroke-width="5"/>
<path d="M845.64 570.383C834.218 556.051 802.742 535.988 768.21 570.383C779.928 584.418 811.82 604.068 845.64 570.383Z" stroke="black" stroke-width="4"/>
<path d="M791.07 568.166C791.07 577.124 798.362 584.396 807.37 584.396C816.377 584.396 823.67 577.124 823.67 568.166C823.67 559.209 816.377 551.937 807.37 551.937C798.362 551.937 791.07 559.209 791.07 568.166Z" stroke="black" stroke-width="3"/>
<path d="M907.017 131.364C909.091 127.419 911.995 117.838 907.017 111.075C902.303 105.627 893.716 91.9131 894.007 82.3321C894.196 76.1326 896.383 61.7048 903.623 53.5892C906.451 50.419 915.502 44.5718 927.946 43.4446C933.037 42.9835 944.689 42.092 950.572 45.699C955.851 48.1412 967.315 57.0834 970.935 73.3147C970.746 76.1327 972.632 84.1356 981.682 93.6038C982.625 94.9189 982.022 97.6617 972.066 98.1125V114.457C972.821 117.838 971.048 124.714 957.925 125.165H952.834V137" stroke="black" stroke-width="4"/>
<path d="M927.939 55.3989C915.442 55.3989 905.313 65.4914 905.313 77.9424C905.313 90.3933 915.442 100.486 927.939 100.486C940.435 100.486 950.565 90.3933 950.565 77.9424C950.565 65.4914 940.435 55.3989 927.939 55.3989ZM927.939 96.9634C917.395 96.9634 908.848 88.4477 908.848 77.9424C908.848 67.437 917.395 58.9213 927.939 58.9213C938.483 58.9213 947.029 67.437 947.029 77.9424C947.029 88.4477 938.483 96.9634 927.939 96.9634Z" fill="black"/>
<path d="M928.387 79.6733L930.029 78.0359L927.845 75.8578L926.201 77.4952C925.94 77.359 925.668 77.2476 925.384 77.1581V74.8424H922.292V77.1581C922.007 77.2476 921.735 77.359 921.473 77.4952L919.829 75.8592L917.645 78.036L919.288 79.6734C919.15 79.9334 919.04 80.2045 918.948 80.4879H916.626V83.5686H918.949C919.04 83.8521 919.15 84.1231 919.288 84.3832L917.645 86.0206L919.831 88.1987L921.473 86.5613C921.735 86.6975 922.006 86.8076 922.292 86.8984V89.2141H925.384V86.8998C925.668 86.809 925.94 86.6975 926.201 86.5613L927.845 88.1987L930.031 86.0206L928.387 84.3846C928.524 84.1232 928.636 83.8535 928.726 83.5686H931.05V80.4879H928.726C928.636 80.2045 928.524 79.9333 928.387 79.6733ZM923.837 85.1083C922.13 85.1083 920.747 83.7296 920.747 82.0289C920.747 80.3269 922.13 78.9495 923.837 78.9495C925.545 78.9495 926.928 80.3269 926.928 82.0289C926.928 83.7296 925.545 85.1083 923.837 85.1083Z" fill="black"/>
<path d="M939.252 72.7715V70.6182H937.626C937.564 70.4194 937.485 70.2302 937.39 70.0485L938.536 68.903L937.009 67.3806L935.86 68.5254C935.679 68.4297 935.487 68.352 935.288 68.2894V66.6706H933.128V68.2894C932.93 68.352 932.738 68.4305 932.555 68.5254L931.406 67.3814L929.878 68.9038L931.027 70.0486C930.931 70.2302 930.853 70.4194 930.79 70.6183H929.165V72.7716H930.79C930.853 72.9705 930.931 73.1596 931.027 73.3413L929.878 74.4861L931.408 76.0093L932.555 74.8645C932.738 74.9594 932.928 75.0364 933.128 75.0998V76.7193H935.288V75.1012C935.487 75.0379 935.679 74.9595 935.86 74.8645L937.009 76.0093L938.539 74.4861L937.39 73.3427C937.485 73.1597 937.564 72.9712 937.626 72.7717H939.252V72.7715ZM934.208 73.8475C933.015 73.8475 932.047 72.8843 932.047 71.6955C932.047 70.5053 933.015 69.5415 934.208 69.5415C935.403 69.5415 936.37 70.5053 936.37 71.6955C936.37 72.8843 935.403 73.8475 934.208 73.8475Z" fill="black"/>
<path d="M791.7 543.345C797.04 540 810.924 535.318 823.74 543.345" stroke="black" stroke-width="5"/>
<path d="M780.575 531.824C788.882 525.803 811.191 517.374 833.975 531.824" stroke="black" stroke-width="5"/>
<path d="M767.67 520.297C780.504 510.263 814.491 496.215 847.77 520.297" stroke="black" stroke-width="5"/>
<path d="M845.64 570.383C834.218 556.051 802.742 535.988 768.21 570.383C779.928 584.418 811.82 604.068 845.64 570.383Z" stroke="black" stroke-width="4"/>
<path d="M791.07 568.166C791.07 577.124 798.362 584.396 807.37 584.396C816.377 584.396 823.67 577.124 823.67 568.166C823.67 559.209 816.377 551.937 807.37 551.937C798.362 551.937 791.07 559.209 791.07 568.166Z" stroke="black" stroke-width="3"/>
<path d="M907.017 131.364C909.091 127.419 911.995 117.838 907.017 111.075C902.303 105.627 893.716 91.9131 894.007 82.3321C894.196 76.1326 896.383 61.7048 903.623 53.5892C906.451 50.419 915.502 44.5718 927.946 43.4446C933.037 42.9835 944.689 42.092 950.572 45.699C955.851 48.1412 967.315 57.0834 970.935 73.3147C970.746 76.1327 972.632 84.1356 981.682 93.6038C982.625 94.9189 982.022 97.6617 972.066 98.1125V114.457C972.821 117.838 971.048 124.714 957.925 125.165H952.834V137" stroke="black" stroke-width="4"/>
<path d="M927.939 55.3989C915.442 55.3989 905.313 65.4914 905.313 77.9424C905.313 90.3933 915.442 100.486 927.939 100.486C940.435 100.486 950.565 90.3933 950.565 77.9424C950.565 65.4914 940.435 55.3989 927.939 55.3989ZM927.939 96.9634C917.395 96.9634 908.848 88.4477 908.848 77.9424C908.848 67.437 917.395 58.9213 927.939 58.9213C938.483 58.9213 947.029 67.437 947.029 77.9424C947.029 88.4477 938.483 96.9634 927.939 96.9634Z" fill="black"/>
<path d="M928.387 79.6733L930.029 78.0359L927.845 75.8578L926.201 77.4952C925.94 77.359 925.668 77.2476 925.384 77.1581V74.8424H922.292V77.1581C922.007 77.2476 921.735 77.359 921.473 77.4952L919.829 75.8592L917.645 78.036L919.288 79.6734C919.15 79.9334 919.04 80.2045 918.948 80.4879H916.626V83.5686H918.949C919.04 83.8521 919.15 84.1231 919.288 84.3832L917.645 86.0206L919.831 88.1987L921.473 86.5613C921.735 86.6975 922.006 86.8076 922.292 86.8984V89.2141H925.384V86.8998C925.668 86.809 925.94 86.6975 926.201 86.5613L927.845 88.1987L930.031 86.0206L928.387 84.3846C928.524 84.1232 928.636 83.8535 928.726 83.5686H931.05V80.4879H928.726C928.636 80.2045 928.524 79.9333 928.387 79.6733ZM923.837 85.1083C922.13 85.1083 920.747 83.7296 920.747 82.0289C920.747 80.3269 922.13 78.9495 923.837 78.9495C925.545 78.9495 926.928 80.3269 926.928 82.0289C926.928 83.7296 925.545 85.1083 923.837 85.1083Z" fill="black"/>
<path d="M939.252 72.7715V70.6182H937.626C937.564 70.4194 937.485 70.2302 937.39 70.0485L938.536 68.903L937.009 67.3806L935.86 68.5254C935.679 68.4297 935.487 68.352 935.288 68.2894V66.6706H933.128V68.2894C932.93 68.352 932.738 68.4305 932.555 68.5254L931.406 67.3814L929.878 68.9038L931.027 70.0486C930.931 70.2302 930.853 70.4194 930.79 70.6183H929.165V72.7716H930.79C930.853 72.9705 930.931 73.1596 931.027 73.3413L929.878 74.4861L931.408 76.0093L932.555 74.8645C932.738 74.9594 932.928 75.0364 933.128 75.0998V76.7193H935.288V75.1012C935.487 75.0379 935.679 74.9595 935.86 74.8645L937.009 76.0093L938.539 74.4861L937.39 73.3427C937.485 73.1597 937.564 72.9712 937.626 72.7717H939.252V72.7715ZM934.208 73.8475C933.015 73.8475 932.047 72.8843 932.047 71.6955C932.047 70.5053 933.015 69.5415 934.208 69.5415C935.403 69.5415 936.37 70.5053 936.37 71.6955C936.37 72.8843 935.403 73.8475 934.208 73.8475Z" fill="black"/>
<rect width="20" height="356" fill="#1E1E1E"/>
<rect x="1124" y="352" width="20" height="292" fill="#1E1E1E"/>
</svg>
