<svg xmlns="http://www.w3.org/2000/svg" fill="none" viewBox="0 0 768 329" height="329" width="768">
<mask height="329" width="768" y="0" x="0" maskUnits="userSpaceOnUse" id="mask0">
<rect fill="white" height="329" width="768"></rect>
</mask>
<g mask="url(#mask0)">
<rect fill="#FFEE66" height="329" width="768" y="-1.66162" x="1.66968" opacity="0.15"></rect>
<ellipse fill="#FF4DA3" ry="30.1211" rx="30.2652" cy="89.9392" cx="87.0303"></ellipse>
<ellipse fill="#FF4DA3" ry="30.1211" rx="30.2652" cy="11.8433" cx="462.682" opacity="0.75"></ellipse>
<ellipse fill="#FF4DA3" ry="30.1211" rx="30.2652" cy="28.4595" cx="602.926" opacity="0.8"></ellipse>
<ellipse fill="#FF4DA3" ry="30.1211" rx="30.2652" cy="262.747" cx="617.952" opacity="0.9"></ellipse>
<ellipse fill="#FF4DA3" ry="30.1211" rx="30.2652" cy="276.04" cx="492.735" opacity="0.75"></ellipse>
<ellipse fill="#FF4DA3" ry="30.1211" rx="30.2652" cy="197.944" cx="549.5" opacity="0.8"></ellipse>
<ellipse fill="#FF4DA3" ry="30.1211" rx="30.2652" cy="197.944" cx="329.117" opacity="0.5"></ellipse>
<ellipse fill="#FF4DA3" ry="30.1211" rx="30.2652" cy="159.727" cx="723.135" opacity="0.75"></ellipse>
<ellipse fill="#FF4DA3" ry="16.4738" rx="16.5526" cy="36.4131" cx="509.074" opacity="0.75"></ellipse>
<ellipse fill="#FF4DA3" ry="16.4738" rx="16.5526" cy="14.8122" cx="407.231" opacity="0.5"></ellipse>
<ellipse fill="#FF4DA3" ry="16.4738" rx="16.5526" cy="29.7666" cx="327.092" opacity="0.75"></ellipse>
<ellipse fill="#FF4DA3" ry="16.4738" rx="16.5526" cy="275.686" cx="437.283" opacity="0.5"></ellipse>
<ellipse fill="#FF4DA3" ry="16.4738" rx="16.5526" cy="24.7818" cx="549.144" opacity="0.8"></ellipse>
<ellipse fill="#FF4DA3" ry="16.4738" rx="16.5526" cy="62.9989" cx="470.674" opacity="0.5"></ellipse>
<ellipse fill="#FF4DA3" ry="16.4738" rx="16.5526" cy="129.464" cx="382.187" opacity="0.5"></ellipse>
<ellipse fill="#FF4DA3" ry="13.2929" rx="13.3565" cy="124.621" cx="298.852" opacity="0.5"></ellipse>
<ellipse fill="#FF4DA3" ry="20.7702" rx="20.8696" cy="145.391" cx="513.391" opacity="0.75"></ellipse>
<ellipse fill="#FF4DA3" ry="20.7702" rx="20.8696" cy="270.013" cx="339.757" opacity="0.75"></ellipse>
<ellipse fill="#FF4DA3" ry="16.4738" rx="16.5526" cy="144.418" cx="328.761" opacity="0.5"></ellipse>
<ellipse fill="#FF4DA3" ry="16.4738" rx="16.5526" cy="184.297" cx="494.048" opacity="0.74"></ellipse>
<ellipse fill="#FF4DA3" ry="16.4738" rx="16.5526" cy="235.807" cx="365.492" opacity="0.5"></ellipse>
<ellipse fill="#FF4DA3" ry="12.4621" rx="12.5218" cy="225.149" cx="491.687" opacity="0.75"></ellipse>
<ellipse fill="#FF4DA3" ry="16.4738" rx="16.5526" cy="99.5546" cx="487.37" opacity="0.5"></ellipse>
<ellipse fill="#FF4DA3" ry="11.6313" rx="11.687" cy="159.515" cx="362.296" opacity="0.5"></ellipse>
<ellipse fill="#FF4DA3" ry="11.6313" rx="11.687" cy="216.01" cx="399.026" opacity="0.5"></ellipse>
<ellipse fill="#FF4DA3" ry="11.6313" rx="11.687" cy="232.626" cx="457.461" opacity="0.5"></ellipse>
<ellipse fill="#FF4DA3" ry="11.6313" rx="11.687" cy="267.52" cx="399.026" opacity="0.75"></ellipse>
<ellipse fill="#FF4DA3" ry="8.30807" rx="8.34782" cy="157.853" cx="389.009" opacity="0.5"></ellipse>
<ellipse fill-opacity="0.5" fill="#FF4DA3" ry="5.81565" rx="5.84348" cy="147.053" cx="403.2"></ellipse>
<ellipse fill="#FF4DA3" ry="5.81566" rx="5.84348" cy="185.27" cx="466.643" opacity="0.75"></ellipse>
<ellipse fill="#FF4DA3" ry="5.81565" rx="5.84348" cy="153.699" cx="480" opacity="0.75"></ellipse>
<ellipse fill="#FF4DA3" ry="5.81566" rx="5.84349" cy="175.301" cx="374.817" opacity="0.6"></ellipse>
<ellipse fill="#FF4DA3" ry="5.81566" rx="5.84349" cy="195.24" cx="394.852" opacity="0.5"></ellipse>
<ellipse fill="#FF4DA3" ry="5.81566" rx="5.84349" cy="246.75" cx="441.6" opacity="0.5"></ellipse>
<ellipse fill="#FF4DA3" ry="5.81566" rx="5.84349" cy="263.366" cx="374.817" opacity="0.75"></ellipse>
<ellipse fill="#FF4DA3" ry="8.30807" rx="8.34782" cy="189.424" cx="412.383" opacity="0.5"></ellipse>
<ellipse fill="#FF4DA3" ry="8.30807" rx="8.34784" cy="144.561" cx="420.73" opacity="0.5"></ellipse>
<ellipse fill="#FF4DA3" ry="8.30807" rx="8.34782" cy="194.409" cx="375.652" opacity="0.5"></ellipse>
<ellipse fill="#FF4DA3" ry="8.30807" rx="8.34782" cy="197.732" cx="454.122" opacity="0.5"></ellipse>
<ellipse fill="#FF4DA3" ry="6.64647" rx="6.67825" cy="209.364" cx="472.487" opacity="0.75"></ellipse>
<ellipse fill="#FF4DA3" ry="9.9697" rx="10.0174" cy="166.162" cx="412.383" opacity="0.5"></ellipse>
<ellipse fill="#FF4DA3" ry="9.9697" rx="10.0174" cy="167.823" cx="460.8" opacity="0.5"></ellipse>
<ellipse fill="#FF4DA3" ry="9.96969" rx="10.0174" cy="127.944" cx="482.504" opacity="0.5"></ellipse>
<ellipse fill="#FF4DA3" ry="16.4738" rx="16.5526" cy="164.358" cx="285.352" opacity="0.75"></ellipse>
<ellipse fill="#FF4DA3" ry="5.81566" rx="5.84348" cy="218.502" cx="277.983" opacity="0.75"></ellipse>
<ellipse fill="#FF4DA3" ry="9.9697" rx="10.0174" cy="232.626" cx="258.783" opacity="0.8"></ellipse>
<ellipse fill="#FF4DA3" ry="9.9697" rx="10.0174" cy="131.268" cx="262.122" opacity="0.75"></ellipse>
<ellipse fill="#FF4DA3" ry="9.9697" rx="10.0174" cy="146.222" cx="233.739" opacity="0.8"></ellipse>
<ellipse fill="#FF4DA3" ry="9.9697" rx="10.0174" cy="192.747" cx="280.487" opacity="0.75"></ellipse>
<ellipse fill="#FF4DA3" ry="16.4738" rx="16.5526" cy="240.792" cx="297.039" opacity="0.75"></ellipse>
<ellipse fill="#FF4DA3" ry="5.81566" rx="5.84347" cy="294.937" cx="289.669" opacity="0.8"></ellipse>
<ellipse fill="#FF4DA3" ry="9.9697" rx="10.0174" cy="269.182" cx="292.174" opacity="0.8"></ellipse>
<ellipse fill="#FF4DA3" ry="16.4738" rx="16.5526" cy="210.883" cx="609.248" opacity="0.9"></ellipse>
<ellipse fill="#FF4DA3" ry="11.6313" rx="11.687" cy="275.828" cx="569.322" opacity="0.8"></ellipse>
<ellipse fill="#FF4DA3" ry="11.6313" rx="11.687" cy="239.273" cx="576"></ellipse>
<ellipse fill="#FF4DA3" ry="16.4738" rx="16.5526" cy="250.762" cx="539.126" opacity="0.8"></ellipse>
<ellipse fill="#FF4DA3" ry="16.4738" rx="16.5526" cy="195.928" cx="759.509"></ellipse>
<ellipse fill="#FF4DA3" ry="16.4738" rx="16.5526" cy="147.741" cx="575.857" opacity="0.8"></ellipse>
<ellipse fill="#FF4DA3" ry="16.4738" rx="16.5526" cy="79.6151" cx="619.266" opacity="0.8"></ellipse>
<ellipse fill="#FF4DA3" ry="9.96969" rx="10.0174" cy="234.288" cx="657.809"></ellipse>
<ellipse fill="#FF4DA3" ry="9.9697" rx="10.0174" cy="157.853" cx="768"></ellipse>
<ellipse fill="#FF4DA3" ry="9.9697" rx="10.0174" cy="124.621" cx="752.974"></ellipse>
<ellipse fill="#FF4DA3" ry="9.9697" rx="10.0174" cy="209.364" cx="649.461"></ellipse>
<ellipse fill="#FF4DA3" ry="30.1211" rx="30.2652" cy="118.187" cx="148.804" opacity="0.5"></ellipse>
<ellipse fill="#FF4DA3" ry="16.4738" rx="16.5526" cy="8.16568" cx="246.953"></ellipse>
<ellipse fill="#FF4DA3" ry="11.6313" rx="11.687" cy="124.621" cx="50.0869"></ellipse>
<ellipse fill="#FF4DA3" ry="11.6313" rx="11.687" cy="44.8636" cx="290.504" opacity="0.75"></ellipse>
<ellipse fill="#FF4DA3" ry="9.9697" rx="10.0174" cy="48.1869" cx="110.191"></ellipse>
<ellipse fill="#FF4DA3" ry="9.9697" rx="10.0174" cy="16.6161" cx="280.487" opacity="0.8"></ellipse>
<ellipse fill="#FF4DA3" ry="11.6313" rx="11.687" cy="289.121" cx="263.791"></ellipse>
<ellipse fill="#FF4DA3" ry="9.9697" rx="10.0174" cy="260.874" cx="253.774"></ellipse>
<ellipse fill="#FF4DA3" ry="9.9697" rx="10.0174" cy="111.328" cx="602.713" opacity="0.8"></ellipse>
<ellipse fill="#FF4DA3" ry="16.4738" rx="16.5526" cy="204.236" cx="691.057"></ellipse>
<ellipse fill="#FF4DA3" ry="9.9697" rx="10.0174" cy="206.04" cx="726.261"></ellipse>
<ellipse fill="#FF4DA3" ry="10.2516" rx="10.3007" cy="5.12687" cx="513.8" opacity="0.8"></ellipse>
<ellipse fill="#FF4DA3" ry="16.4738" rx="16.5526" cy="96.2314" cx="255.3" opacity="0.75"></ellipse>
<ellipse fill="#FF4DA3" ry="16.4738" rx="16.5526" cy="84.6" cx="295.37" opacity="0.5"></ellipse>
<ellipse fill="#FF4DA3" ry="12.4621" rx="12.5217" cy="105.513" cx="212.869" opacity="0.8"></ellipse>
<ellipse fill="#FF4DA3" ry="16.4738" rx="16.5526" cy="185.959" cx="241.944" opacity="0.8"></ellipse>
<ellipse fill="#FF4DA3" ry="23.2626" rx="23.3739" cy="154.53" cx="193.67"></ellipse>
<ellipse fill="#FF4DA3" ry="10.2516" rx="10.3007" cy="64.9451" cx="260.026" opacity="0.75"></ellipse>
<ellipse fill="#FF4DA3" ry="10.2516" rx="10.3007" cy="3.46525" cx="376.895" opacity="0.75"></ellipse>
<ellipse fill="#FF4DA3" ry="10.2516" rx="10.3007" cy="69.9299" cx="136.478"></ellipse>
<ellipse fill="#FF4DA3" ry="41.5404" rx="41.7391" cy="171.146" cx="86.8173" opacity="0.5"></ellipse>
<ellipse fill="#FF4DA3" ry="41.5404" rx="41.7391" cy="43.202" cx="188.661"></ellipse>
<ellipse fill="#FF4DA3" ry="41.5404" rx="41.7391" cy="152.869" cx="642.783" opacity="0.9"></ellipse>
<ellipse fill="#FF4DA3" ry="41.5404" rx="41.7391" cy="88.0656" cx="550.956" opacity="0.75"></ellipse>
<ellipse fill="#FF4DA3" ry="41.5404" rx="41.7391" cy="265.859" cx="707.896" opacity="0.5"></ellipse>
<ellipse fill="#FF4DA3" ry="64.4342" rx="64.7425" cy="247.212" cx="174.934" opacity="0.75"></ellipse>
<ellipse fill="#FF4DA3" ry="64.4342" rx="64.7425" cy="57.7878" cx="709.195" opacity="0.9"></ellipse>
<ellipse fill="#24818F" ry="4.98485" rx="5.0087" cy="114.651" cx="355.617"></ellipse>
<ellipse fill="#24818F" ry="4.98485" rx="5.00869" cy="114.651" cx="407.374"></ellipse>
<ellipse fill="#24818F" ry="4.15404" rx="4.17391" cy="127.114" cx="411.548"></ellipse>
<ellipse fill="#24818F" ry="5.81565" rx="5.84348" cy="103.851" cx="364.8"></ellipse>
<ellipse fill="#24818F" ry="5.81565" rx="5.84348" cy="103.851" cx="398.191"></ellipse>
<ellipse fill="#24818F" ry="7.47727" rx="7.51304" cy="100.528" cx="381.495"></ellipse>
<ellipse fill="#24818F" ry="7.47727" rx="7.51304" cy="178.624" cx="391.513"></ellipse>
<ellipse fill="#24818F" ry="9.9697" rx="10.0174" cy="108.005" cx="323.896"></ellipse>
<ellipse fill="#24818F" ry="13.2929" rx="13.3565" cy="142.899" cx="450.783"></ellipse>
<ellipse fill="#24818F" ry="11.6313" rx="11.687" cy="116.313" cx="445.774"></ellipse>
<ellipse fill="#24818F" ry="11.6313" rx="11.687" cy="181.116" cx="439.096"></ellipse>
<ellipse fill="#24818F" ry="7.47727" rx="7.51305" cy="228.472" cx="434.922"></ellipse>
<ellipse fill="#24818F" ry="4.98484" rx="5.00869" cy="225.98" cx="420.73"></ellipse>
<ellipse fill="#24818F" ry="7.47727" rx="7.51304" cy="245.088" cx="393.182"></ellipse>
<ellipse fill="#24818F" ry="10.8005" rx="10.8522" cy="206.871" cx="433.252"></ellipse>
<ellipse fill="#24818F" ry="12.4621" rx="12.5217" cy="246.75" cx="418.226"></ellipse>
<ellipse fill="#24818F" ry="18.2778" rx="18.3652" cy="78.0959" cx="338.922"></ellipse>
<ellipse fill="#24818F" ry="14.9545" rx="14.1913" cy="71.4494" cx="384.835"></ellipse>
<ellipse fill="#24818F" ry="19.9394" rx="19.2" cy="81.4191" cx="428.243"></ellipse>
<ellipse fill="#24818F" ry="8.30808" rx="8.34782" cy="51.5101" cx="360.626"></ellipse>
<ellipse fill="#24818F" ry="8.30808" rx="7.51304" cy="51.5101" cx="411.548"></ellipse>
<ellipse fill="#24818F" ry="8.30808" rx="7.51304" cy="44.8636" cx="386.504"></ellipse>
<ellipse fill="#24818F" ry="8.30808" rx="8.34782" cy="96.3738" cx="457.461"></ellipse>
<ellipse fill="#24818F" ry="4.98484" rx="5.00869" cy="161.177" cx="439.096"></ellipse>
<ellipse fill="#24818F" ry="5.81565" rx="5.84348" cy="118.806" cx="464.974"></ellipse>
</g>
</svg>
